<svg viewBox="345.7716115261473 0 337.97225186766275 309.38334" xmlns:xlink="http://www.w3.org/1999/xlink" xmlns="http://www.w3.org/2000/svg" data-name="Layer 1" id="Layer_1" style="max-height: 500px" width="337.97225186766275" height="309.38334">
  <defs>
    <style>
      .cls-1 {
        fill: url(#linear-gradient);
      }

      .cls-2 {
        fill: #9b6a14;
      }

      .cls-3 {
        fill: #fefefe;
      }

      .cls-4 {
        fill: #a8633d;
      }

      .cls-5 {
        fill: #a15618;
        stroke: #ab8265;
        stroke-miterlimit: 10;
      }
    </style>
    <linearGradient gradientUnits="userSpaceOnUse" gradientTransform="translate(0 512.15) scale(1 -1)" y2="309.35" x2="649.24" y1="309.35" x1="380.46" id="linear-gradient">
      <stop stop-color="#fff" offset="0"/>
      <stop stop-color="#54937c" offset="1"/>
    </linearGradient>
  </defs>
  <g data-name="Layer 1" id="Layer_1-2">
    <path d="M576.26.58h10.99l8.06,1.46,5.49,2.2,4.03,2.93,2.93,2.93,2.93,4.76,1.46,3.66.37,2.56v3.3l-.73,4.39-2.2,5.86-2.93,5.49-3.66,5.13-3.3,4.39-4.76,5.86-5.13,5.13-5.13,4.03-6.59,5.13-5.86,4.03-7.69,5.13-7.69,4.76-9.89,5.49-10.62,5.13-9.16,3.66-10.99,3.66-8.79,2.2-12.08,2.2-18.68,2.56-13.55,1.46-11.35.73h-18.31l-16.11-1.1-14.65-1.83-16.11-2.93-13.18-3.3-13.18-4.39-1.83-.73-1.83.37-5.13,3.66-5.49,4.39-5.13,4.03-5.49,4.76-7.32,7.32-2.56,2.93-4.76,5.49-4.03,4.76-5.13,6.23-19.78,24.17-4.76,5.86-3.3,4.03-5.13,6.23-4.03,5.13-4.39,5.49-4.39,5.86-4.76,6.59-5.86,9.16-4.76,8.42-7.32,14.28-2.93,6.23-2.56,5.13-3.66,8.79-2.2,6.59-1.1,6.23-.37,8.79-.73,3.66-1.83,1.83h-3.3l-5.86-1.46-3.66-1.83-1.46-1.83-.73-2.93-2.2-24.54-.73-6.96-1.1-17.21-.37-9.16v-19.04l.73-15.38,1.1-13.18,1.83-14.28,2.93-16.48,3.3-13.92,2.56-9.52,4.39-13.92,5.13-13.55,3.66-8.42.73-.37,3.66,1.46,5.49,4.76,3.66,2.93,3.66,3.3-1.1,4.03-5.13,13.92-3.66,11.72-3.3,12.45-3.3,15.75-2.2,12.08-3.3,23.44-1.1,9.89v20.87l.73,13.18.37,6.23h.73l.73-2.2,5.13-9.52,4.39-8.06,6.23-12.82,4.76-8.42,6.23-10.62,5.13-8.06,5.86-9.16,6.59-9.89,4.39-6.23,2.93-4.03,5.13-6.96,7.32-9.52,4.03-5.13,2.93-3.66,4.03-5.13,4.76-5.86,2.93-3.66,5.13-6.23,4.03-4.76,3.3-4.03,4.39-4.76,2.56-2.93,3.3-3.66,2.56-2.93,2.2-1.83,1.83.73,2.2,1.1,2.2,2.56,5.49,4.03,5.49,2.93,7.69,2.93,9.16,2.93,16.85,4.39,11.35,2.2,8.42,1.1,10.99.73h17.58l9.52-.73,22.34-2.56,13.18-2.2,10.62-2.2,10.25-2.93,15.38-5.86,12.08-4.76,7.32-3.3,6.96-3.3,8.42-4.76,5.86-3.66,6.96-4.76,6.96-5.13,5.86-4.76,4.03-3.3,7.32-6.59,2.93-3.66,1.46-2.93.73-4.76-.73-3.66-1.1-1.83-5.13-2.56-5.49-1.1h-9.89l-11.35,1.46-10.62,2.2-12.08,3.3-13.18,4.39-11.35,4.03-15.01,5.86-16.11,6.59-9.89,4.39-12.82,5.86-12.08,5.86-8.42,4.76-5.49,3.3-2.2-.37-1.1-1.46.37-1.83,4.39-5.49,3.66-4.76,4.76-5.86,5.13-6.96,3.3-4.39,2.93-1.46,5.86-2.56,9.16-4.39,15.01-6.23,7.69-3.3,9.52-3.66,9.89-3.66,13.92-4.76,8.06-2.2,10.25-2.56,8.06-1.83,14.28-2.2,5.86-.73h0Z" class="cls-5"/>
    <path d="M173.42,73.09c1.64-.14,5.04-.19,6.59.37.62.22,1.75.98,2.2,1.46.67.73,1.79,2.4,2.2,3.3,6.34,16.98-5.46,33.42-14.65,46.88-20.81,29.2-50.44,50.8-79.1,71.78-1.44,1.13-3.93,2.65-5.13,4.03-2.54,7.01-2.97,15.66-2.93,23.07,1,16,.1,38.42,15.75,47.61,7.16,1.95,14.66-2.85,20.88-5.86,12.09-6.89,23.58-17.52,29.66-30.03,3.08-2.01,8.21-2.59,11.72-3.66,3.77-.72,10.16-2.91,13.92-2.56.78,3.96-3.37,9.14-4.76,12.82-2.67,5.09-6.15,10.28-9.89,14.65-10.82,12.15-23.08,25.07-39.18,29.66-25.51,7.97-42.21-10.62-47.24-34.06-2.18-12.52-2.51-27.58-1.83-40.28,1.81-5.13-4.62.95-5.86,2.56-15.84,12.35-33.57,23.18-50.17,34.42-3.54,1.95-10.95,10.41-14.65,8.79-2.63-3.42.66-25.56,4.39-27.83,15.81-10.21,38.54-24.41,55.3-34.79,24.23-12.3,10.79-3.59,20.87-26.37,9-22.51,23.14-42.86,38.82-61.16,11.55-11.48,26.48-22.96,41.38-31.13,1.34-.63,4.09-1.73,5.49-2.2,1.52-.5,4.63-1.32,6.23-1.46h-.01Z" class="cls-4"/>
    <path d="M604.82,54.05l1.46.37.73,9.52,1.46,6.96,3.3,8.79,3.3,6.96,2.93,4.39,3.66,4.76,3.3,3.66,7.32,7.32,2.93,2.56,3.66,3.3,5.86,5.49,10.25,10.25,2.56,2.93,4.03,4.76,4.03,5.49,4.39,6.96,2.93,5.49,2.93,7.32,2.2,7.32,1.1,5.49.37,3.3v4.76l-.73,7.69-1.83,7.32-2.2,5.86-2.93,5.86-5.49,9.89-3.3,5.86-5.13,7.32-2.93,4.03-4.39,4.39-3.3,4.03-16.11,16.11-4.03,3.3-4.76,3.66-6.59,5.13-5.13,3.66-9.52,5.49-6.59,3.66-9.16,4.39-10.25,4.03-12.08,4.03-8.79,2.2-14.65,2.56-12.45,1.46-13.55,1.1-9.52.37h-10.25l-12.45-.73-15.01-1.83-13.18-2.56-9.52-2.56-9.89-3.3-8.79-3.66-9.16-4.39-8.06-4.76-6.96-4.76-6.23-4.76-5.13-4.39-3.66-3.3-6.96-6.96-2.56-2.93-2.56-2.56-4.03-5.13-3.66-4.76-3.3-4.39-4.76-9.16-3.66-6.23-2.56-5.86-1.46-4.76-1.46-7.69v-9.16l2.2-11.35,2.56-9.16,3.3-7.69,4.76-8.79,5.49-8.06,3.3-4.03,4.39-5.13,3.3-4.03,4.39-4.39,5.49-3.66,4.03-1.83,4.03-.73h5.49l2.2,1.1.73,1.46-.37,2.2-2.2,2.56-4.03,2.93-4.39,4.03-5.86,5.86-3.66,4.76-4.39,6.23-4.76,6.59-4.03,7.69-2.93,7.69-1.83,7.69-1.1,8.42v9.16l1.1,8.79,2.2,9.16,2.56,7.69,2.56,4.76,4.39,6.23,4.03,5.13,4.76,5.49,4.39,4.39,9.52,7.32,5.49,3.3,12.82,6.59,12.08,5.49,8.42,3.3,9.52,2.93,9.89,2.2,8.06,1.46,15.01,2.2,12.82,1.1,6.96.37h13.92l11.35-.73,12.45-1.83,10.25-2.2,7.69-2.2,8.79-3.66,18.68-8.79,13.92-7.32,6.23-4.39,6.23-4.76,5.13-4.03,5.49-4.76,4.76-4.39,1.46-1.46h.73v-.73l1.83-1.83,3.3-3.66,4.76-6.23,2.93-4.03,2.93-4.39,2.2-3.66,2.93-6.23,3.66-10.99,1.1-4.03.37-6.59v-12.08l-.73-6.59-2.2-9.52-2.93-8.06-4.03-6.96-2.56-4.39-5.13-6.59-3.66-4.76-4.39-5.13-2.93-3.3-4.76-6.59-4.76-7.32-3.66-6.59-5.13-9.89-3.3-7.69-2.56-8.42-1.83-8.42-.37-2.56v-4.39l1.1-3.66,1.83-1.83,2.2-.73v-.02Z" class="cls-4"/>
    <path d="M172.69,85.91l.73.37c-2.39,7.5-7.74,15.99-12.82,21.97-4.06,5.64-9.64,13.64-13.55,19.41-6.28,8.28-13.76,16.96-21.61,23.8-9.99,9.12-22.28,17.36-32.96,25.63h-.73c5.82-28.9,53.09-81.21,80.93-91.19h.01Z" class="cls-3"/>
  </g>
  <g data-name="Layer 2" id="Layer_2">
    <path d="M383.26,230.88c-17.04-61.12,46.49-87.78,116.28-106.65,69.79-18.88,135.99,1.4,147.86,45.3,11.87,43.89-34.93,95.37-104.87,113.65-64.52,16.87-147.07-8.5-159.27-52.3h0Z" class="cls-1"/>
    <path d="M396.83,395.05c.29,0,.58-.5.87-.5-.29,0-.58.5-.87.5h0Z" class="cls-2"/>
    <path d="M400.11,391.77c.29,0,.58-.5.87-.5-.29,0-.58.5-.87.5h0Z" class="cls-2"/>
    <path d="M532.38,223.42c.29,0,.58-.5.87-.5-.29,0-.58.5-.87.5h0Z" class="cls-2"/>
    <path d="M534.56,80.22c.29,0,.58-.5.87-.5-.29,0-.58.5-.87.5h0Z" class="cls-2"/>
    <path d="M348.73,98.81c.29,0,.58-.5.87-.5-.29,0-.58.5-.87.5h0Z" class="cls-2"/>
    <path d="M338.89,98.81c.29,0,.58-.5.87-.5-.29,0-.58.5-.87.5h0Z" class="cls-2"/>
    <path d="M329.05,100.99c.29,0,.58-.5.87-.5-.29,0-.58.5-.87.5h0Z" class="cls-2"/>
    <path d="M333.43,106.46c.29,0,.58-.5.87-.5-.29,0-.58.5-.87.5h0Z" class="cls-2"/>
    <path d="M330.15,97.71c.29,0,.58-.5.87-.5-.29,0-.58.5-.87.5h0Z" class="cls-2"/>
    <path d="M570.64,6.98c.29,0,.58-.5.87-.5-.29,0-.58.5-.87.5h0Z" class="cls-2"/>
    <path d="M564.08,16.82c.29,0,.58-.5.87-.5-.29,0-.58.5-.87.5h0Z" class="cls-2"/>
    <path d="M555.33,28.84c.29,0,.58-.5.87-.5-.29,0-.58.5-.87.5h0Z" class="cls-2"/>
    <path d="M811.13,235.45c.29,0,.58-.5.87-.5-.29,0-.58.5-.87.5h0Z" class="cls-2"/>
    <path d="M509.42,220.14c.29,0,.58-.5.87-.5-.29,0-.58.5-.87.5h0Z" class="cls-2"/>
    <path d="M519.26,226.7c.29,0,.58-.5.87-.5-.29,0-.58.5-.87.5h0Z" class="cls-2"/>
    <path d="M520.35,208.12c.29,0,.58-.5.87-.5-.29,0-.58.5-.87.5h0Z" class="cls-2"/>
    <path d="M806.75,141.44c.29,0,.58-.5.87-.5-.29,0-.58.5-.87.5h0Z" class="cls-2"/>
    <path d="M393.55,409.26c.29,0,.58-.5.87-.5-.29,0-.58.5-.87.5h0Z" class="cls-2"/>
    <path d="M447.11,368.81c.29,0,.58-.5.87-.5-.29,0-.58.5-.87.5h0Z" class="cls-2"/>
    <path d="M406.67,433.31c.29,0,.58-.5.87-.5-.29,0-.58.5-.87.5h0Z" class="cls-2"/>
  </g>
</svg>